<svg width="100" height="100" viewBox="0 0 128 128" fill="none" xmlns="http://www.w3.org/2000/svg" class="max-w-full">
    <g clip-path="url(#clip0_3_2)"><path d="M90.5 0H37.5C16.7893 0 0 16.7893 0 37.5V90.5C0 111.211 16.7893 128 37.5 128H90.5C111.211 128 128 111.211 128 90.5V37.5C128 16.7893 111.211 0 90.5 0Z" fill="#398CCB"></path><path fill-rule="evenodd" clip-rule="evenodd" d="M63.8615 18.75L81.6307 29.002V34.639L103.138 47.0595V68.306L108.908 71.6365V92.152L91.15 102.404L83.2662 97.8445L64.098 108.912L45.0445 97.9085L37.2713 102.404L19.5135 92.1345V71.6365L25.0578 68.4358V47.0595L46.1038 34.9095L46.1155 34.909V29.002L63.8615 18.75ZM81.6307 39.9698V49.5058L63.873 59.7578L46.1155 49.5058V40.234L46.1038 40.2345L29.673 49.725V65.771L37.2713 61.3845L55.0288 71.6365V92.1345L49.6565 95.2413L64.098 103.581L78.6545 95.178L73.3922 92.1345V71.6365L91.15 61.3845L98.523 65.6413V49.725L81.6307 39.9698ZM78.0077 89.4923V76.9788L88.8422 83.2328V95.7463L78.0077 89.4923ZM104.292 76.9615L93.4577 83.2155V95.7463L104.292 89.475V76.9615ZM24.1289 89.475V76.9615L34.9635 83.2155V95.7288L24.1289 89.475ZM50.4135 76.9615L39.5788 83.2155V95.7288L50.4135 89.475V76.9615ZM80.3155 72.9808L91.15 66.727L101.984 72.9808L91.15 79.2405L80.3155 72.9808ZM37.2713 66.7095L26.4365 72.9808L37.2713 79.223L48.1058 72.9808L37.2713 66.7095ZM50.7308 46.8405V34.327L61.5537 40.5865V53.0943L50.7308 46.8405ZM77.0038 34.327L66.1807 40.5865V53.0885L77.0038 46.8405V34.327ZM53.0385 30.3345L63.8615 24.0808L74.6962 30.3345L63.8615 36.5885L53.0385 30.3345Z" fill="white"></path></g>
    
    <defs><clipPath id="clip0_3_2"><rect width="128" height="128" fill="white"></rect></clipPath></defs></svg>